<svg preserveAspectRatio="none" width="100%" height="100%" overflow="visible" style="display: block;" viewBox="0 0 22.2197 22.2369" fill="none" xmlns="http://www.w3.org/2000/svg">
<g id="Icon">
<path id="Vector" d="M22.2197 22.2197V14.0776C22.2197 10.075 21.3645 7.03026 16.6947 7.03026C14.4539 7.03026 12.9487 8.24474 12.3329 9.425H12.2816V7.38947H7.86842V22.2197H12.4868V14.8816C12.4868 12.9316 12.8461 11.0842 15.2579 11.0842C17.6697 11.0842 17.6526 13.3079 17.6526 15.0184V22.2368L22.2197 22.2197Z" fill="var(--fill-0, white)" fill-opacity="0.44"/>
<path id="Vector_2" d="M0.376316 7.38947H4.97763V22.2197H0.376316V7.38947Z" fill="var(--fill-0, white)" fill-opacity="0.44"/>
<path id="Vector_3" d="M2.68553 0C1.21447 0 0 1.19737 0 2.66842C0 4.13947 1.19737 5.35395 2.66842 5.35395C4.13947 5.35395 5.35395 4.15658 5.35395 2.68553V2.65132C5.35395 1.19737 4.15658 0 2.68553 0Z" fill="var(--fill-0, white)" fill-opacity="0.44"/>
</g>
</svg>
